<svg width="1600" height="1200" viewBox="0 0 1600 1200" fill="none" xmlns="http://www.w3.org/2000/svg">
  <defs>
    <linearGradient id="gradient" x1="0" y1="0" x2="1600" y2="1200" gradientUnits="userSpaceOnUse">
      <stop offset="0%" stop-color="#d9e7ff" />
      <stop offset="50%" stop-color="#eafbf7" />
      <stop offset="100%" stop-color="#fff8f2" />
    </linearGradient>
    <linearGradient id="waveGradient" x1="0" y1="0" x2="1600" y2="0" gradientUnits="userSpaceOnUse">
      <stop offset="0%" stop-color="rgba(82, 146, 255, 0.25)" />
      <stop offset="50%" stop-color="rgba(79, 182, 255, 0.35)" />
      <stop offset="100%" stop-color="rgba(79, 255, 217, 0.35)" />
    </linearGradient>
    <filter id="blur" x="-20%" y="-20%" width="140%" height="140%" filterUnits="objectBoundingBox">
      <feGaussianBlur stdDeviation="60" />
    </filter>
  </defs>

  <!-- Background gradient -->
  <rect width="1600" height="1200" fill="url(#gradient)" />

  <!-- Layered wave shapes -->
  <g filter="url(#blur)">
    <path d="M0 870 C 300 820, 600 930, 900 880 C 1200 830, 1300 900, 1600 840 L 1600 1200 L 0 1200 Z" fill="url(#waveGradient)" />
    <path d="M0 720 C 250 780, 500 640, 750 720 C 1000 800, 1250 680, 1600 760 L 1600 1200 L 0 1200 Z" fill="rgba(129, 200, 255, 0.25)" />
    <path d="M0 600 C 320 580, 640 660, 960 600 C 1280 540, 1440 620, 1600 580 L 1600 1200 L 0 1200 Z" fill="rgba(209, 244, 255, 0.3)" />
  </g>

  <!-- Soft circles -->
  <circle cx="280" cy="320" r="180" fill="rgba(112, 185, 255, 0.22)" />
  <circle cx="1320" cy="420" r="240" fill="rgba(149, 255, 214, 0.18)" />
  <circle cx="820" cy="180" r="160" fill="rgba(255, 255, 255, 0.4)" />
</svg>
